<?xml version="1.0" encoding="UTF-8" ?>
<!DOCTYPE svg PUBLIC "-//W3C//DTD SVG 1.1//EN" "http://www.w3.org/Graphics/SVG/1.1/DTD/svg11.dtd">
<svg width="1600pt" height="400pt" viewBox="0 0 1600 400" version="1.1" xmlns="http://www.w3.org/2000/svg">
<g id="#e0e0e0ff">
</g>
<g id="#800000ff">
<path fill="#800000" opacity="1.00" d=" M 137.42 67.45 C 141.20 66.55 145.15 67.15 149.00 67.01 C 585.68 67.77 1022.36 68.50 1459.04 69.22 C 1462.38 68.70 1466.13 71.29 1465.45 74.95 C 1465.15 78.11 1461.86 79.52 1459.05 79.23 C 1021.70 78.49 584.35 77.77 147.01 77.02 C 143.82 76.91 140.54 77.37 137.42 76.57 C 133.51 75.15 133.53 68.88 137.42 67.45 Z" />
<path fill="#800000" opacity="1.00" d=" M 250.45 110.50 C 264.08 102.17 280.10 98.27 295.99 98.01 C 310.89 97.82 326.10 99.36 339.96 105.11 C 340.04 114.72 339.99 124.33 339.99 133.94 C 323.04 123.75 301.98 120.90 282.87 125.87 C 267.70 129.82 254.62 140.52 247.21 154.27 C 239.26 169.07 237.74 186.58 239.86 203.02 C 241.83 218.72 249.82 233.89 262.83 243.17 C 274.27 251.63 288.98 254.39 302.95 253.47 C 316.00 252.90 328.94 249.13 339.98 242.08 C 340.02 251.01 340.01 259.94 339.98 268.88 C 323.36 277.26 304.35 279.55 285.94 278.89 C 269.75 278.22 253.44 273.45 240.43 263.58 C 224.19 251.50 213.36 232.88 209.88 213.03 C 206.68 194.81 207.37 175.70 212.93 158.00 C 219.11 138.29 232.82 121.20 250.45 110.50 Z" />
</g>
<g id="#000040ff">
<path fill="#000040" opacity="1.00" d=" M 734.33 101.28 C 750.10 100.16 766.45 102.11 780.74 109.19 C 798.91 118.11 812.77 134.77 819.40 153.77 C 825.12 170.14 825.99 187.85 824.16 204.98 C 822.32 221.86 816.74 238.68 806.08 252.08 C 797.09 263.58 784.81 272.52 770.95 277.17 C 766.76 278.50 762.51 280.05 758.06 280.02 C 746.02 279.99 733.97 279.99 721.93 280.02 C 717.15 280.05 712.61 278.33 708.14 276.84 C 691.23 270.90 677.05 258.35 668.08 242.94 C 660.16 229.38 656.56 213.65 656.07 198.05 C 655.56 181.25 657.72 164.08 664.57 148.61 C 671.35 133.24 682.95 119.88 697.65 111.64 C 708.84 105.34 721.58 102.16 734.33 101.28 M 729.41 127.69 C 715.38 130.44 703.49 140.20 696.44 152.42 C 687.49 167.74 685.84 186.23 687.65 203.58 C 689.36 219.87 696.41 236.18 709.45 246.54 C 719.29 254.57 732.46 257.51 744.94 256.43 C 756.91 255.71 768.83 250.94 777.16 242.16 C 787.92 231.35 792.59 215.98 793.66 201.08 C 794.61 186.75 793.68 171.95 788.49 158.43 C 784.02 146.74 775.40 136.34 763.88 131.11 C 753.16 126.28 740.87 125.44 729.41 127.69 Z" />
<path fill="#000040" opacity="1.00" d=" M 514.00 104.00 C 528.33 104.00 542.67 104.00 557.00 104.00 C 568.55 104.10 580.30 103.32 591.61 106.19 C 603.63 108.91 615.27 115.42 622.06 125.96 C 628.90 136.23 630.19 149.30 628.12 161.22 C 626.05 173.17 618.86 184.05 608.75 190.74 C 603.05 194.70 596.51 197.15 589.91 199.15 C 603.06 207.22 611.90 220.24 619.92 233.06 C 629.60 248.36 639.30 263.66 648.98 278.97 C 637.68 279.04 626.37 278.99 615.07 278.99 C 605.06 262.29 595.13 245.54 585.12 228.84 C 580.55 221.66 575.29 214.22 567.39 210.47 C 559.76 206.91 551.13 208.26 543.00 208.00 C 543.00 231.67 543.00 255.33 543.00 279.00 C 533.33 279.00 523.67 279.00 514.00 279.00 C 514.00 220.67 514.00 162.33 514.00 104.00 M 543.00 127.66 C 543.00 146.55 543.00 165.44 543.00 184.33 C 551.33 184.40 559.65 184.36 567.98 184.38 C 575.03 184.37 582.19 182.20 587.71 177.73 C 594.19 172.54 597.70 164.27 597.98 156.07 C 598.36 148.82 596.54 141.02 591.25 135.76 C 585.53 129.81 576.98 127.71 568.97 127.63 C 560.31 127.63 551.66 127.60 543.00 127.66 Z" />
<path fill="#000040" opacity="1.00" d=" M 832.02 104.02 C 843.02 103.97 854.02 104.02 865.02 103.99 C 873.02 121.08 880.82 138.26 888.74 155.39 C 893.78 166.58 899.40 177.53 903.45 189.14 C 905.91 181.73 909.55 174.81 912.83 167.75 C 922.91 146.51 932.90 125.22 943.03 104.00 C 953.35 104.01 963.67 103.97 973.99 104.02 C 955.34 140.34 936.71 176.67 918.03 212.96 C 917.36 214.19 916.91 215.53 917.00 216.94 C 916.99 237.63 917.01 258.31 917.00 279.00 C 907.33 279.00 897.67 279.00 888.00 279.00 C 888.00 258.65 887.99 238.29 888.01 217.94 C 888.21 214.97 886.35 212.49 885.16 209.93 C 867.41 174.64 849.72 139.33 832.02 104.02 Z" />
<path fill="#000040" opacity="1.00" d=" M 1023.59 104.21 C 1034.65 103.79 1045.73 104.02 1056.79 104.09 C 1078.36 162.45 1100.32 220.67 1121.97 279.00 C 1111.32 279.00 1100.67 279.01 1090.01 278.99 C 1084.66 264.26 1079.57 249.44 1074.13 234.75 C 1051.13 234.79 1028.12 234.70 1005.12 234.79 C 1000.07 249.52 995.06 264.26 990.00 278.98 C 979.34 279.02 968.68 279.00 958.02 279.00 C 979.79 220.70 1002.02 162.57 1023.59 104.21 M 1028.94 163.89 C 1023.58 179.59 1018.08 195.25 1012.80 210.97 C 1030.67 211.00 1048.54 211.05 1066.41 210.95 C 1060.52 193.76 1054.46 176.62 1048.51 159.45 C 1045.24 149.66 1041.10 140.09 1039.64 129.81 C 1037.19 141.49 1032.72 152.59 1028.94 163.89 Z" />
<path fill="#000040" opacity="1.00" d=" M 1145.00 104.00 C 1154.66 104.00 1164.33 104.00 1174.00 104.00 C 1174.06 154.19 1173.87 204.38 1174.09 254.57 C 1196.39 254.44 1218.70 254.48 1241.00 254.55 C 1240.99 262.70 1241.00 270.85 1241.00 279.00 C 1209.00 279.00 1177.00 279.00 1145.00 279.00 C 1145.00 220.67 1145.00 162.33 1145.00 104.00 Z" />
<path fill="#000040" opacity="1.00" d=" M 1267.00 104.00 C 1298.33 104.00 1329.66 104.00 1361.00 104.00 C 1360.96 112.23 1361.08 120.46 1360.93 128.68 C 1339.29 128.58 1317.64 128.62 1296.00 128.66 C 1296.00 145.11 1296.00 161.55 1296.00 178.00 C 1316.00 178.00 1336.00 178.00 1356.00 178.00 C 1356.00 186.15 1355.99 194.30 1356.00 202.45 C 1336.03 202.51 1316.06 202.56 1296.09 202.43 C 1295.94 219.81 1295.94 237.19 1296.09 254.57 C 1319.06 254.44 1342.03 254.48 1365.00 254.55 C 1364.99 262.70 1365.00 270.85 1365.00 279.00 C 1332.33 279.00 1299.67 279.00 1267.00 279.00 C 1267.00 220.67 1267.00 162.33 1267.00 104.00 Z" />
<path fill="#000040" opacity="1.00" d=" M 137.23 304.23 C 137.91 304.17 139.26 304.05 139.93 303.99 C 282.96 304.00 425.98 304.19 569.00 304.46 C 675.67 304.66 782.33 305.02 889.00 305.01 C 1076.33 305.07 1263.67 305.61 1451.00 305.86 C 1455.24 306.00 1459.54 305.48 1463.75 306.25 C 1467.02 307.34 1468.00 312.10 1465.44 314.41 C 1462.93 316.82 1459.13 316.02 1456.00 316.21 C 1346.00 315.90 1236.00 315.92 1126.00 315.74 C 945.67 315.46 765.34 314.91 585.00 314.87 C 439.34 314.71 293.67 314.44 148.00 314.01 C 144.41 313.92 140.79 314.28 137.23 313.76 C 132.99 312.28 132.99 305.71 137.23 304.23 Z" />
</g>
<g id="#000000ff">
<path fill="#000000" opacity="1.00" d=" M 356.76 127.82 C 405.27 148.36 453.67 169.19 502.03 190.06 C 454.43 209.52 406.47 228.13 358.73 247.24 C 359.21 245.06 360.00 242.97 360.98 240.98 C 366.46 228.36 371.77 215.66 377.31 203.05 C 362.20 202.93 347.10 203.03 332.00 203.00 C 332.00 193.33 332.00 183.67 332.00 174.00 C 346.33 174.00 360.67 174.00 375.00 174.00 C 369.15 160.08 363.66 146.01 357.98 132.02 C 357.35 130.69 357.02 129.26 356.76 127.82 M 369.82 141.83 C 375.78 154.99 380.69 168.63 386.28 181.96 C 370.52 182.05 354.76 181.98 339.00 182.00 C 339.00 186.33 339.00 190.67 339.00 195.00 C 355.67 194.99 372.35 195.00 389.03 195.00 C 383.14 207.92 378.18 221.27 371.92 234.00 C 373.05 233.44 374.19 232.89 375.37 232.41 C 410.52 218.60 445.56 204.52 480.67 190.64 C 480.85 190.34 481.22 189.75 481.40 189.45 C 473.18 186.81 465.48 182.68 457.41 179.58 C 428.27 166.87 398.88 154.70 369.82 141.83 Z" />
</g>
<g id="#ffffffff">
</g>
</svg>
